<svg width="30" height="28" viewBox="0 0 30 28" fill="current" xmlns="http://www.w3.org/2000/svg">
  <path
    d="M29.0928 12.5911L2.25259 0.148021C1.98232 0.0227356 1.68152 -0.0244508 1.38511 0.011942C1.08871 0.0483349 0.808863 0.166814 0.578076 0.35362C0.347288 0.540427 0.175025 0.787896 0.0812915 1.06729C-0.0124424 1.34669 -0.0238019 1.64655 0.0485325 1.93205L1.96208 9.47412L14.2107 13.9987L1.96208 18.5234L0.0485325 26.0654C-0.0251629 26.3511 -0.0147515 26.6516 0.0785489 26.9317C0.171849 27.2118 0.344181 27.4599 0.575385 27.6471C0.806589 27.8342 1.08711 27.9526 1.38412 27.9885C1.68114 28.0243 1.98237 27.9761 2.25259 27.8495L29.0928 15.4064C29.3641 15.2808 29.5934 15.0817 29.754 14.8324C29.9147 14.5832 30 14.294 30 13.9987C30 13.7035 29.9147 13.4143 29.754 13.1651C29.5934 12.9158 29.3641 12.7167 29.0928 12.5911Z"
    fill="currentColor" />
</svg>