<svg width="42" height="41" viewBox="0 0 42 41" fill="none" xmlns="http://www.w3.org/2000/svg">
  <g filter="url(#filter0_d_26_567)">
    <path
      d="M14.3541 0H27.9834C33.1755 0 37.3941 4.1964 37.3941 9.3612V22.9188C37.3941 25.4015 36.4026 27.7826 34.6377 29.5382C32.8729 31.2937 30.4792 32.28 27.9834 32.28H14.3541C9.16195 32.28 4.94336 28.0836 4.94336 22.9188V9.3612C4.94336 6.87846 5.93484 4.4974 7.69969 2.74183C9.46454 0.986267 11.8582 0 14.3541 0ZM14.0296 3.228C12.4804 3.228 10.9947 3.84017 9.89926 4.92983C8.80383 6.01949 8.18843 7.49739 8.18843 9.0384V23.2416C8.18843 26.4535 10.8007 29.052 14.0296 29.052H28.3079C29.857 29.052 31.3427 28.4398 32.4382 27.3502C33.5336 26.2605 34.149 24.7826 34.149 23.2416V9.0384C34.149 5.82654 31.5367 3.228 28.3079 3.228H14.0296ZM29.687 5.649C30.2249 5.649 30.7408 5.86156 31.1212 6.23991C31.5015 6.61827 31.7152 7.13143 31.7152 7.6665C31.7152 8.20157 31.5015 8.71473 31.1212 9.09309C30.7408 9.47144 30.2249 9.684 29.687 9.684C29.1491 9.684 28.6332 9.47144 28.2529 9.09309C27.8725 8.71473 27.6589 8.20157 27.6589 7.6665C27.6589 7.13143 27.8725 6.61827 28.2529 6.23991C28.6332 5.86156 29.1491 5.649 29.687 5.649ZM21.1687 8.07C23.3203 8.07 25.3838 8.92023 26.9052 10.4336C28.4267 11.9471 29.2814 13.9997 29.2814 16.14C29.2814 18.2803 28.4267 20.3329 26.9052 21.8464C25.3838 23.3598 23.3203 24.21 21.1687 24.21C19.0171 24.21 16.9536 23.3598 15.4322 21.8464C13.9108 20.3329 13.056 18.2803 13.056 16.14C13.056 13.9997 13.9108 11.9471 15.4322 10.4336C16.9536 8.92023 19.0171 8.07 21.1687 8.07ZM21.1687 11.298C19.8777 11.298 18.6396 11.8081 17.7268 12.7162C16.8139 13.6242 16.3011 14.8558 16.3011 16.14C16.3011 17.4242 16.8139 18.6558 17.7268 19.5638C18.6396 20.4719 19.8777 20.982 21.1687 20.982C22.4597 20.982 23.6978 20.4719 24.6106 19.5638C25.5235 18.6558 26.0363 17.4242 26.0363 16.14C26.0363 14.8558 25.5235 13.6242 24.6106 12.7162C23.6978 11.8081 22.4597 11.298 21.1687 11.298Z"
      fill="#211E2F" />
  </g>
  <defs>
    <filter id="filter0_d_26_567" x="0.943359" y="0" width="40.4507" height="40.28"
      filterUnits="userSpaceOnUse" color-interpolation-filters="sRGB">
      <feFlood flood-opacity="0" result="BackgroundImageFix" />
      <feColorMatrix in="SourceAlpha" type="matrix"
        values="0 0 0 0 0 0 0 0 0 0 0 0 0 0 0 0 0 0 127 0" result="hardAlpha" />
      <feOffset dy="4" />
      <feGaussianBlur stdDeviation="2" />
      <feComposite in2="hardAlpha" operator="out" />
      <feColorMatrix type="matrix" values="0 0 0 0 0 0 0 0 0 0 0 0 0 0 0 0 0 0 0.25 0" />
      <feBlend mode="normal" in2="BackgroundImageFix" result="effect1_dropShadow_26_567" />
      <feBlend mode="normal" in="SourceGraphic" in2="effect1_dropShadow_26_567" result="shape" />
    </filter>
  </defs>
</svg>