<svg width="1728" height="1117" viewBox="0 0 1728 1117" fill="none"
  xmlns="http://www.w3.org/2000/svg">
  <g filter="url(#filter0_d_15_204)">
    <path
      d="M1278.27 775.031C1266.23 787.431 1246.49 783.865 1238.13 780.531L1201.5 798.531L1211.54 864.531L1256.7 895.531C1301.35 894.698 1392.98 892.431 1402.21 890.031C1411.45 887.631 1459.92 848.698 1483 829.531C1468.95 804.365 1431.72 751.231 1395.19 740.031C1349.53 726.031 1293.33 759.531 1278.27 775.031Z"
      fill="url(#paint0_linear_15_204)" shape-rendering="crispEdges" />
    <path
      d="M1238.32 780.067L1238.11 779.984L1237.91 780.082L1201.28 798.082L1200.95 798.244L1201.01 798.606L1211.04 864.606L1211.07 864.821L1211.25 864.943L1256.41 895.943L1256.55 896.034L1256.71 896.031C1279.04 895.614 1313.11 894.839 1342.76 893.868C1357.58 893.383 1371.3 892.848 1381.89 892.285C1387.18 892.004 1391.7 891.715 1395.18 891.421C1398.65 891.128 1401.14 890.828 1402.34 890.515C1403.57 890.196 1405.39 889.29 1407.64 887.959C1409.91 886.619 1412.66 884.819 1415.77 882.672C1421.98 878.378 1429.64 872.682 1437.72 866.465C1453.88 854.031 1471.78 839.502 1483.32 829.916L1483.64 829.65L1483.44 829.287C1476.4 816.678 1463.56 797.073 1447.9 779.214C1432.26 761.37 1413.74 745.196 1395.33 739.553C1372.35 732.505 1346.76 737.422 1325.07 746.004C1303.38 754.585 1285.5 766.87 1277.91 774.683C1272.01 780.76 1264.21 782.942 1256.81 783.181C1249.4 783.421 1242.44 781.712 1238.32 780.067Z"
      stroke="white" stroke-opacity="0.09" shape-rendering="crispEdges" />
  </g>
  <g filter="url(#filter1_d_15_204)">
    <path
      d="M120 736.531C88.4 762.931 28.5 764.198 2.5 761.531H-174V1463.53H1802.5V761.531C1778.67 749.865 1730.4 726.731 1728 727.531C1725.6 728.331 1713 720.865 1707 717.031C1687.4 697.031 1672.83 705.365 1668 712.031C1664 706.431 1656.67 711.365 1653.5 714.531C1651.5 716.531 1648 715.365 1646.5 714.531C1637.3 698.931 1632.33 702.031 1631 705.531C1623.4 694.731 1604.5 701.031 1596 705.531C1592.4 694.731 1561.17 701.031 1546 705.531C1540.8 694.731 1513.5 705.365 1500.5 712.031C1492.9 706.431 1475 714.365 1467 719.031C1460.6 718.231 1449.33 722.031 1444.5 724.031C1419.7 708.031 1365.83 758.698 1342 786.031C1317.2 796.831 1256 786.531 1228.5 780.031C1226.9 765.231 1214.17 768.865 1208 772.531C1189.6 750.131 1098 730.865 1054.5 724.031C1044.1 710.431 1004.5 702.365 986 700.031C930.8 700.031 894.333 673.365 883 660.031H874.5L872.5 654.531C861.3 655.331 848.5 650.865 843.5 648.531C831.5 633.331 823.167 625.198 820.5 623.031C795.7 608.231 745.167 614.198 723 619.031C718.6 609.831 710.833 609.531 707.5 610.531C701.1 620.131 694.833 622.865 692.5 623.031C683.3 620.231 674.667 621.865 671.5 623.031C668.3 615.431 663.833 621.198 662 625.031C658.8 630.631 641.333 627.365 633 625.031V621.031C630.2 623.431 624.5 622.031 622 621.031C619.2 615.431 614.5 618.698 612.5 621.031C608 629.031 604.5 625.531 604 625.031C602 622.231 600.5 623.865 600 625.031C592.8 635.431 583.333 636.365 579.5 635.531V630.531C565.9 634.531 563.167 639.531 563.5 641.531C546.3 641.531 538.667 650.531 537 655.031C535 669.031 512.5 673.531 501.5 674.031C497.1 674.031 511 643.365 518.5 628.031C528.1 603.231 508.167 602.365 497 605.031C453.4 623.431 431.833 654.365 426.5 667.531C422.5 686.731 404.5 697.198 396 700.031C397.2 681.631 388.833 675.031 384.5 674.031C368.5 672.831 370.5 695.531 373.5 707.031C359.1 712.231 323.5 701.865 307.5 696.031C274.7 682.031 168.833 717.198 120 736.531Z"
      fill="url(#paint1_linear_15_204)" shape-rendering="crispEdges" />
    <path
      d="M2.55101 761.034L2.52557 761.031H2.5H-174H-174.5V761.531V1463.53V1464.03H-174H1802.5H1803V1463.53V761.531V761.219L1802.72 761.082C1790.8 755.248 1772.77 746.546 1757.42 739.403C1749.75 735.831 1742.74 732.648 1737.5 730.406C1734.88 729.285 1732.69 728.397 1731.08 727.814C1730.28 727.523 1729.61 727.303 1729.1 727.169C1728.84 727.102 1728.61 727.054 1728.42 727.029C1728.25 727.007 1728.03 726.994 1727.84 727.057C1727.68 727.11 1727.34 727.112 1726.77 726.98C1726.22 726.853 1725.53 726.622 1724.74 726.303C1723.15 725.666 1721.18 724.697 1719.09 723.578C1714.92 721.352 1710.31 718.552 1707.32 716.64C1697.47 706.605 1688.81 703.604 1681.93 704.032C1675.41 704.438 1670.6 707.923 1667.99 711.211C1667.01 710.049 1665.85 709.39 1664.6 709.125C1663.18 708.825 1661.69 709.038 1660.28 709.52C1657.45 710.483 1654.76 712.564 1653.15 714.178C1652.3 715.027 1651.1 715.234 1649.87 715.097C1648.7 714.967 1647.58 714.536 1646.86 714.158C1644.58 710.301 1642.54 707.571 1640.74 705.705C1638.93 703.823 1637.33 702.791 1635.94 702.388C1634.52 701.98 1633.33 702.228 1632.41 702.853C1631.76 703.293 1631.26 703.905 1630.9 704.562C1626.88 699.526 1620.3 698.535 1613.78 699.297C1607.22 700.064 1600.58 702.615 1596.27 704.829C1595.13 702.213 1592.41 700.672 1588.92 699.855C1585.17 698.98 1580.4 698.9 1575.3 699.295C1565.27 700.073 1553.86 702.703 1546.25 704.935C1544.79 702.275 1542.01 700.966 1538.58 700.557C1535.01 700.129 1530.63 700.668 1526.06 701.744C1517.03 703.869 1507.07 708.124 1500.54 711.448C1498.55 710.094 1495.99 709.578 1493.18 709.606C1490.25 709.636 1487 710.261 1483.76 711.201C1477.36 713.06 1470.93 716.176 1466.89 718.515C1463.61 718.149 1459.19 718.914 1455.04 719.997C1450.93 721.068 1447.01 722.468 1444.55 723.47C1438.2 719.497 1430.09 719.736 1421.22 722.65C1412.24 725.6 1402.39 731.321 1392.6 738.376C1373.05 752.459 1353.64 771.937 1341.7 785.617C1335.59 788.252 1327.23 789.617 1317.65 790.065C1308.02 790.515 1297.21 790.038 1286.31 789.021C1264.68 787.003 1242.71 782.859 1228.96 779.625C1228.52 776.042 1227.42 773.493 1225.86 771.765C1224.25 769.976 1222.2 769.113 1220.02 768.86C1215.87 768.377 1211.24 770.103 1208.11 771.887C1203.35 766.305 1194.2 760.973 1182.57 756.004C1170.68 750.929 1156.13 746.2 1140.8 741.962C1110.23 733.51 1076.54 726.995 1054.77 723.568C1052.09 720.142 1047.64 717.1 1042.23 714.424C1036.73 711.701 1030.2 709.336 1023.43 707.327C1009.89 703.309 995.333 700.704 986.063 699.535L986.031 699.531H986C930.956 699.531 894.625 672.936 883.381 659.707L883.231 659.531H883H874.85L872.97 654.36L872.841 654.006L872.464 654.032C861.466 654.818 848.859 650.459 843.819 648.128C831.849 632.976 823.518 624.839 820.815 622.643L820.787 622.62L820.756 622.602C808.23 615.126 789.276 612.923 770.756 613.169C752.425 613.412 734.42 616.059 723.277 618.46C718.721 609.342 710.833 609.009 707.356 610.052L707.184 610.104L707.084 610.254C703.913 615.01 700.788 618.047 698.184 619.912C695.64 621.734 693.62 622.42 692.553 622.525C683.663 619.846 675.312 621.236 671.772 622.407C671 620.717 670.124 619.661 669.155 619.155C668.069 618.588 666.971 618.764 665.995 619.307C665.035 619.84 664.155 620.745 663.409 621.731C662.663 622.718 662.027 623.819 661.557 624.798C660.863 625.998 659.357 626.797 657.192 627.232C655.038 627.664 652.344 627.71 649.46 627.507C643.863 627.114 637.651 625.79 633.5 624.651V621.031V619.944L632.675 620.652C631.432 621.717 629.48 621.98 627.429 621.808C625.494 621.646 623.584 621.106 622.359 620.635C621.644 619.268 620.791 618.382 619.844 617.896C618.854 617.387 617.817 617.344 616.838 617.569C614.913 618.012 613.151 619.503 612.12 620.706L612.088 620.743L612.064 620.786C609.843 624.734 607.967 625.668 606.729 625.719C605.507 625.77 604.661 624.982 604.382 624.706C603.343 623.266 602.282 622.771 601.295 623.064C600.415 623.326 599.84 624.161 599.561 624.786C592.728 634.626 583.877 635.764 580 635.118V630.531V629.863L579.359 630.052C572.52 632.063 568.364 634.339 565.95 636.401C563.901 638.151 563.049 639.804 562.978 641.034C545.955 641.214 538.26 650.19 536.531 654.858L536.513 654.908L536.505 654.96C535.545 661.683 529.647 666.209 522.437 669.13C515.26 672.038 506.952 673.281 501.491 673.531C501.401 673.529 501.359 673.503 501.311 673.424C501.239 673.305 501.172 673.07 501.159 672.668C501.135 671.874 501.331 670.674 501.73 669.125C502.523 666.043 504.072 661.756 506.001 656.968C509.857 647.4 515.202 635.912 518.949 628.251L518.959 628.232L518.966 628.212C521.384 621.965 521.97 617.159 521.252 613.504C520.529 609.825 518.493 607.357 515.787 605.798C513.1 604.25 509.77 603.608 506.435 603.513C503.094 603.417 499.711 603.87 496.884 604.545L496.844 604.554L496.806 604.571C453.083 623.022 431.42 654.054 426.037 667.343L426.02 667.385L426.01 667.429C424.038 676.896 418.612 684.223 412.606 689.544C406.922 694.58 400.741 697.798 396.543 699.313C397.48 681.318 389.196 674.602 384.612 673.544L384.575 673.535L384.537 673.533C380.406 673.223 377.377 674.459 375.245 676.721C373.134 678.962 371.952 682.158 371.381 685.689C370.27 692.569 371.445 700.936 372.901 706.709C369.436 707.852 364.758 708.145 359.392 707.827C353.813 707.498 347.539 706.512 341.203 705.179C328.538 702.516 315.668 698.476 307.684 695.566C299.356 692.017 286.483 691.607 271.18 693.237C255.845 694.871 237.985 698.565 219.638 703.297C182.942 712.762 144.246 726.394 119.816 736.066L119.741 736.096L119.679 736.148C103.984 749.26 81.2181 756.158 59.0768 759.437C36.9471 762.713 15.514 762.363 2.55101 761.034Z"
      stroke="white" stroke-opacity="0.09" shape-rendering="crispEdges" />
  </g>
  <g filter="url(#filter2_d_15_204)">
    <path
      d="M650.5 838.031C594.1 807.231 194.667 775.198 2 763.031H-32.5V1379.53H1794V887.531C1797.83 870.031 1790.9 828.531 1732.5 802.531C1674.1 776.531 1469.83 822.698 1375 849.031C1270.2 893.031 1193.33 829.031 1168 791.531C1157.6 753.931 1104.33 777.531 1079 794.031C1045.8 839.631 902.5 856.365 835 859.031C813 871.831 742.167 848.365 709.5 835.031C688.3 811.431 661.333 827.198 650.5 838.031Z"
      fill="url(#paint2_linear_15_204)" shape-rendering="crispEdges" />
    <path
      d="M2.03151 762.532L2.01577 762.531H2H-32.5H-33V763.031V1379.53V1380.03H-32.5H1794H1794.5V1379.53V887.585C1798.36 869.8 1791.24 828.135 1732.7 802.074C1717.99 795.524 1694.17 793.542 1665.32 794.625C1636.45 795.71 1602.45 799.87 1567.33 805.663C1497.09 817.25 1422.3 835.379 1374.87 848.549L1374.84 848.558L1374.81 848.57C1270.37 892.416 1193.77 828.718 1168.46 791.319C1165.81 781.83 1160.45 776.149 1153.46 773.277C1146.48 770.408 1137.95 770.362 1129.01 772.002C1111.13 775.281 1091.42 785.345 1078.73 793.612L1078.65 793.663L1078.6 793.737C1070.38 805.025 1055.3 814.577 1036.17 822.589C1017.05 830.595 993.949 837.037 969.759 842.142C921.381 852.351 868.71 857.199 834.98 858.532L834.856 858.537L834.749 858.599C829.383 861.721 820.959 862.664 810.733 862.057C800.529 861.451 788.624 859.308 776.367 856.345C751.91 850.432 726.118 841.268 709.795 834.612C699.08 822.739 686.881 820.756 676.006 823.13C665.314 825.464 655.914 832.002 650.411 837.415C643.243 833.588 630.899 829.766 614.456 825.977C597.744 822.126 576.749 818.299 552.549 814.536C504.148 807.009 442.9 799.736 377.401 793.046C246.401 779.666 98.369 768.616 2.03151 762.532Z"
      stroke="white" stroke-opacity="0.09" shape-rendering="crispEdges" />
  </g>
  <defs>
    <filter id="filter0_d_15_204" x="1062.4" y="597.686" width="559.877" height="436.851"
      filterUnits="userSpaceOnUse" color-interpolation-filters="sRGB">
      <feFlood flood-opacity="0" result="BackgroundImageFix" />
      <feColorMatrix in="SourceAlpha" type="matrix"
        values="0 0 0 0 0 0 0 0 0 0 0 0 0 0 0 0 0 0 127 0" result="hardAlpha" />
      <feOffset />
      <feGaussianBlur stdDeviation="69" />
      <feComposite in2="hardAlpha" operator="out" />
      <feColorMatrix type="matrix" values="0 0 0 0 0 0 0 0 0 0 0 0 0 0 0 0 0 0 0.25 0" />
      <feBlend mode="normal" in2="BackgroundImageFix" result="effect1_dropShadow_15_204" />
      <feBlend mode="normal" in="SourceGraphic" in2="effect1_dropShadow_15_204" result="shape" />
    </filter>
    <filter id="filter1_d_15_204" x="-313" y="465" width="2254.5" height="1137.53"
      filterUnits="userSpaceOnUse" color-interpolation-filters="sRGB">
      <feFlood flood-opacity="0" result="BackgroundImageFix" />
      <feColorMatrix in="SourceAlpha" type="matrix"
        values="0 0 0 0 0 0 0 0 0 0 0 0 0 0 0 0 0 0 127 0" result="hardAlpha" />
      <feOffset />
      <feGaussianBlur stdDeviation="69" />
      <feComposite in2="hardAlpha" operator="out" />
      <feColorMatrix type="matrix" values="0 0 0 0 0 0 0 0 0 0 0 0 0 0 0 0 0 0 0.25 0" />
      <feBlend mode="normal" in2="BackgroundImageFix" result="effect1_dropShadow_15_204" />
      <feBlend mode="normal" in="SourceGraphic" in2="effect1_dropShadow_15_204" result="shape" />
    </filter>
    <filter id="filter2_d_15_204" x="-171.5" y="624.031" width="2105.37" height="894.5"
      filterUnits="userSpaceOnUse" color-interpolation-filters="sRGB">
      <feFlood flood-opacity="0" result="BackgroundImageFix" />
      <feColorMatrix in="SourceAlpha" type="matrix"
        values="0 0 0 0 0 0 0 0 0 0 0 0 0 0 0 0 0 0 127 0" result="hardAlpha" />
      <feOffset />
      <feGaussianBlur stdDeviation="69" />
      <feComposite in2="hardAlpha" operator="out" />
      <feColorMatrix type="matrix" values="0 0 0 0 0 0 0 0 0 0 0 0 0 0 0 0 0 0 0.25 0" />
      <feBlend mode="normal" in2="BackgroundImageFix" result="effect1_dropShadow_15_204" />
      <feBlend mode="normal" in="SourceGraphic" in2="effect1_dropShadow_15_204" result="shape" />
    </filter>
    <linearGradient id="paint0_linear_15_204" x1="1342.21" y1="625.434" x2="1333.35" y2="912.693"
      gradientUnits="userSpaceOnUse">
      <stop offset="0.0299677" stop-color="#2F251E" />
      <stop offset="1" stop-color="#161323" />
    </linearGradient>
    <linearGradient id="paint1_linear_15_204" x1="814" y1="2.00005" x2="777" y2="1557"
      gradientUnits="userSpaceOnUse">
      <stop offset="0.0299677" stop-color="#2F251E" />
      <stop offset="1" stop-color="#161323" />
    </linearGradient>
    <linearGradient id="paint2_linear_15_204" x1="880.952" y1="331.246" x2="860.359" y2="1446.82"
      gradientUnits="userSpaceOnUse">
      <stop offset="0.0299677" stop-color="#2F251E" />
      <stop offset="1" stop-color="#161323" />
    </linearGradient>
  </defs>
</svg>